<?xml version="1.0" encoding="utf-8"?>
<!-- Generator: Adobe Illustrator 21.1.0, SVG Export Plug-In . SVG Version: 6.00 Build 0)  -->
<svg version="1.1" id="Layer_1" xmlns="http://www.w3.org/2000/svg" xmlns:xlink="http://www.w3.org/1999/xlink" x="0px" y="0px"
	 viewBox="0 0 51 42" style="enable-background:new 0 0 51 42;" xml:space="preserve">
<style type="text/css">
	.st0{fill:#F57C00;}
</style>
<g>
	<path class="st0" d="M0,25.7C0,11,9.7,3.3,12.9,0.6c1-0.7,1.9-1,3,0.3L18,3c1,1.1,0.7,2.4-0.1,3.1C16.3,7.2,8.2,13.4,8,22.9
		c0,0,2.4-1,5.5-1c5.4,0,9.9,4.4,9.9,10c0,5.5-4.6,10.1-10.9,10.1C7.3,42,0,37.9,0,25.7z M27.5,25.7c0-14.7,9.7-22.5,12.9-25.1
		c1-0.7,1.9-1,3,0.3L45.5,3c1,1.1,0.7,2.4-0.1,3.1c-1.5,1.1-9.7,7.3-9.8,16.8c0,0,2.4-1,5.5-1c5.4,0,9.9,4.4,9.9,10
		C51,37.4,46.4,42,40.1,42C34.8,42,27.5,37.9,27.5,25.7z"/>
</g>
</svg>
